<svg xmlns="http://www.w3.org/2000/svg" version="1.1" xmlns:xlink="http://www.w3.org/1999/xlink" xmlns:svgjs="http://svgjs.dev/svgjs" width="1500" height="321" viewBox="0 0 1500 321"><g transform="matrix(1,0,0,1,-0.9089739520418334,0.1168071666956223)"><svg viewBox="0 0 396 85" data-background-color="#ffffff" preserveAspectRatio="xMidYMid meet" height="321" width="1500" xmlns="http://www.w3.org/2000/svg" xmlns:xlink="http://www.w3.org/1999/xlink"><g id="tight-bounds" transform="matrix(1,0,0,1,0.2399691233390513,-0.03091016722277118)"><svg viewBox="0 0 395.52 85.06168142126785" height="85.06168142126785" width="395.52"><rect width="395.5200617533219" height="85.06184041385559" fill="url(#2ef95583-c928-4ad5-a854-e002bee73627)" mask="url(#0ddeb5bf-24bf-49f1-8bc2-36cc4db642cc)" data-fill-palette-color="tertiary"></rect><g><svg viewBox="0 0 512.3870105775931 110.19544057986201" height="85.06168142126785" width="395.52"><g transform="matrix(1,0,0,1,116.8670105775931,0)"><svg viewBox="0 0 395.52 110.19544057986201" height="110.19544057986201" width="395.52"><g id="textblocktransform"><svg viewBox="0 0 395.52 110.19544057986201" height="110.19544057986201" width="395.52" id="textblock"><g><svg viewBox="0 0 395.52 110.19544057986201" height="110.19544057986201" width="395.52"><path d="M394.594 23.635C392.735 12.197 387.435 9.017 387.435 9.017 371.165-2.765 350.86-0.225 332.619 1.467 300.414 1.536 268.339 4.053 236.208 5.402 168.767 5.608 100.749 2.222 33.643 10.572 27.339 13.135-6.54 11.076 1.121 25.099 3.129 30.932 10.456 37.406 10.232 42.76 11.236 43.698 12.631 41.547 13.226 42.897 15.309 46.534 18.711 44.818 21.501 46.969 17.614 52.711 20.403 57.492 23.062 62.502 18.377 63.806 12.371 63.188 9.675 67.512 9.396 70.646 7.89 70.051 6.235 69.914 5.026 69.822 2.59 70.166 2.999 71.149 4.394 74.512-1.594 76.457 2.162 79.751-0.422 83.32 3.948 86.408 3.353 90.274 3.278 91.052 3.687 91.715 4.338 91.898 7.22 92.882 3.018 94.804 3.464 96.885 33.029 111.115 65.104 101.278 95.394 107.82 103.259 103.245 97.346 109.445 100.489 108.484 102.943 107.363 104.728 112.007 107.499 109.376 107.927 108.621 107.276 106.837 108.8 107.18 109.6 107.363 110.307 107.317 110.418 106.265 110.586 104.686 109.117 105.67 108.726 104.846 112.947 100.683 111.906 110.588 115.866 110.177 115.68 108.964 114.528 107.226 116.889 107.454 119.232 105.716 119.306 104.274 121.389 108.186 121.463 109.033 121.835 109.628 122.43 110.039 128.938 105.784 135.409 111.549 142.233 109.628 146.417 107.523 150.433 110.771 154.672 109.971 156.16 109.33 157.666 108.186 159.098 110.108 176.632 110.52 195.319 108.804 211.943 110.177 256.364 107.614 303.836 111.229 350.674 107.843 361.719 106.539 373.192 104.686 383.958 103.199 383.958 103.199 392.679 99.127 392.679 80.826S394.538 64.813 394.817 50.24C395.096 35.668 396.398 35.073 394.538 23.635Z" opacity="1" fill="url(#2ef95583-c928-4ad5-a854-e002bee73627)" data-fill-palette-color="tertiary"></path><g transform="matrix(1,0,0,1,55.76832,26.230666666666668)"><svg width="283.98335999999995" viewBox="0.4 -34.4 190.82 38.8" height="57.73410724652867" data-palette-color="#000000"><path d="M24.8-34.2L24.8-34.2Q28.7-34.2 28.7-32.25L28.7-32.25Q28.7-31.15 27.35-29.6L27.35-29.6Q39.4-28 39.4-17.15L39.4-17.15Q39.4-13.5 37.93-10.2 36.45-6.9 33.98-4.48 31.5-2.05 28.35-0.25 25.2 1.55 21.73 2.45 18.25 3.35 14.9 3.35L14.9 3.35Q11.9 3.35 9.33 2.58 6.75 1.8 4.73 0.25 2.7-1.3 1.55-3.85 0.4-6.4 0.4-9.65L0.4-9.65Q0.4-18.2 8.1-26.25L8.1-26.25Q5.55-25.35 4.5-24.75L4.5-24.75Q4.25-24.65 4.05-24.55 3.85-24.45 3.65-24.35 3.45-24.25 3.28-24.2 3.1-24.15 2.95-24.1 2.8-24.05 2.68-24.03 2.55-24 2.48-23.98 2.4-23.95 2.3-23.95L2.3-23.95Q2.1-24 2.05-24.1L2.05-24.1Q2.05-24.65 4.1-25.7L4.1-25.7Q7.1-27.3 10.25-28.25L10.25-28.25Q16-33.15 22.85-34.05L22.85-34.05Q22.95-34.05 23.05-34.08 23.15-34.1 23.25-34.1 23.35-34.1 23.48-34.13 23.6-34.15 23.7-34.15 23.8-34.15 23.9-34.15 24-34.15 24.13-34.15 24.25-34.15 24.35-34.18 24.45-34.2 24.58-34.2 24.7-34.2 24.8-34.2ZM25.9-29.75L25.9-29.75Q26.55-30.95 26.55-31.6L26.55-31.6Q26.55-32.65 24.65-32.65L24.65-32.65Q24.45-32.65 24.25-32.65 24.05-32.65 23.83-32.63 23.6-32.6 23.35-32.6L23.35-32.6Q18.35-32.1 14.2-29.25L14.2-29.25Q17.7-29.95 21.65-29.95L21.65-29.95Q22.65-29.95 23.73-29.9 24.8-29.85 25.9-29.75ZM3.05-10.3L3.05-10.3Q3.05-7.8 3.73-5.73 4.4-3.65 5.58-2.23 6.75-0.8 8.38 0.18 10 1.15 11.9 1.63 13.8 2.1 15.95 2.1L15.95 2.1Q18.85 2.1 21.85 1.25 24.85 0.4 27.58-1.28 30.3-2.95 32.45-5.2 34.6-7.45 35.88-10.55 37.15-13.65 37.15-17.1L37.15-17.1Q37.15-21.6 34.23-24.83 31.3-28.05 26.7-28.55L26.7-28.55Q26.35-28.1 25.45-27.15 24.55-26.2 22.48-24.53 20.4-22.85 18.55-21.9L18.55-21.9Q16.25-20.8 15.75-20.8L15.75-20.8Q15.6-20.8 15.6-20.85L15.6-20.85Q15.6-21.35 18.35-23.15L18.35-23.15Q22.25-25.75 25.15-28.65L25.15-28.65Q24-28.7 22.75-28.7L22.75-28.7Q19.9-28.7 17.1-28.33 14.3-27.95 11.75-27.35L11.75-27.35Q7.35-23.35 5.2-18.93 3.05-14.5 3.05-10.3ZM44.15-18.75L47.35-18.75 47.55-19.45Q47.7-20.05 47.7-20.3L47.7-20.3Q47.7-20.5 47.6-20.68 47.5-20.85 47.5-21 47.5-21.15 47.65-21.6L47.65-21.6Q48.65-24.8 49.47-25.85 50.3-26.9 51.9-26.9L51.9-26.9Q52.6-26.9 52.7-26.45L52.7-26.45Q51.6-24.1 49.65-18.75L49.65-18.75 54.5-18.75Q55.9-18.75 55.9-18.45L55.9-18.45Q55.9-17.95 53.6-17.68 51.3-17.4 49.2-17.4L49.2-17.4Q46.7-10.35 45.15-3.9L45.15-3.9Q44.9-2.9 44.9-2.45L44.9-2.45Q44.9-1.6 45.45-1.6L45.45-1.6Q46.45-1.6 48.37-3.38 50.3-5.15 50.45-5.15L50.45-5.15Q50.7-5.15 50.7-4.85L50.7-4.85Q50.7-4 50.15-3.75L50.15-3.75Q45.55 0.4 43.7 0.4L43.7 0.4Q42.55 0.4 42.55-1.05L42.55-1.05Q42.55-1.85 43.75-5.75L43.75-5.75Q43.9-6.25 46.95-17.2L46.95-17.2Q45.75-17 43.6-17L43.6-17Q42.45-17 42.45-17.45L42.45-17.45Q42.45-17.8 43.1-18.28 43.75-18.75 44.15-18.75L44.15-18.75ZM67.95-4L67.95-4Q67.9-3.95 67.5-3.58 67.1-3.2 66.85-3 66.6-2.8 66.12-2.38 65.65-1.95 65.3-1.7 64.95-1.45 64.45-1.1 63.95-0.75 63.57-0.58 63.2-0.4 62.8-0.25 62.4-0.1 62.05-0.1L62.05-0.1Q61-0.1 60.8-1.35L60.8-1.35Q60.8-3.45 62.45-9.1L62.45-9.1Q55.75 0.15 52.85 0.15L52.85 0.15Q51.65 0.15 51.65-1.65L51.65-1.65Q51.65-3.95 53.02-7.88 54.4-11.8 56.4-14.98 58.4-18.15 59.9-18.15L59.9-18.15 60.05-18.15 60.6-18.55Q61.05-19.05 62-19.05L62-19.05Q62.75-19.05 64.1-18.65 65.45-18.25 65.6-18.25L65.6-18.25Q65.8-18.25 66.12-18.65 66.45-19.05 66.9-19.05L66.9-19.05Q68.15-19.05 68.15-17.95L68.15-17.95Q68.15-17.5 67.97-16.95 67.8-16.4 67.47-15.68 67.15-14.95 67.1-14.8L67.1-14.8Q67.05-14.7 66.62-14.5 66.2-14.3 66.15-14.15L66.15-14.15Q65.05-11.05 64.2-7.53 63.35-4 63.35-3.2L63.35-3.2Q63.35-1.95 64.05-1.95 64.75-1.95 65.77-2.8 66.8-3.65 67.55-4.5 68.3-5.35 68.35-5.35L68.35-5.35Q68.45-5.35 68.45-5.15L68.45-5.15Q68.45-4.4 67.95-4ZM64.8-17.3L64.65-17.3Q64.35-17.3 63.62-17.4 62.9-17.5 62.4-17.5L62.4-17.5Q61.7-17.5 60.9-17.3L60.9-17.3Q59.65-16.95 56.8-11.38 53.95-5.8 53.95-3.05L53.95-3.05Q53.95-2.2 54.45-2.2L54.45-2.2Q55.5-2.2 58.17-5.25 60.85-8.3 61.7-9.6L61.7-9.6Q62.95-11.6 64-13.93 65.05-16.25 65.05-17L65.05-17Q65.05-17.3 64.8-17.3L64.8-17.3ZM84.09-17.65L84.09-17.65Q80.99-15.85 78.22-12.83 75.44-9.8 75.44-8.85L75.44-8.85Q75.44-7.05 76.99-4.35 78.54-1.65 79.74-0.65L79.74-0.65Q80.69 0.15 80.69 0.65L80.69 0.65Q80.69 0.95 80.24 0.95L80.24 0.95Q79.24 0.95 77.94-0.43 76.64-1.8 75.72-3.23 74.79-4.65 73.79-6.5L73.79-6.5 72.74-8.35Q70.59-2.4 70.49-0.85L70.49-0.85Q70.49-0.5 69.57 0.28 68.64 1.05 68.09 1.05L68.09 1.05Q67.74 1.05 67.74 0.6L67.74 0.6Q67.74 0.4 67.99-0.35L67.99-0.35Q69.39-3.85 70.69-7.73 71.99-11.6 73.59-16.68 75.19-21.75 75.99-24.15L75.99-24.15Q76.19-24.75 76.19-25.05L76.19-25.05Q76.19-25.25 76.12-25.43 76.04-25.6 76.04-25.7L76.04-25.7Q76.04-25.9 76.19-26.35L76.19-26.35Q77.34-29.55 78.14-30.58 78.94-31.6 80.59-31.6L80.59-31.6Q81.29-31.6 81.34-31.15L81.34-31.15Q78.34-25.1 76.47-20.3 74.59-15.5 73.14-9.7L73.14-9.7 75.44-11.75Q77.74-13.8 80.24-15.98 82.74-18.15 83.09-18.45L83.09-18.45Q84.44-19.45 85.14-19.45L85.14-19.45Q85.44-19.45 85.44-19.25L85.44-19.25Q85.44-18.7 84.09-17.65ZM99.19-19.2L99.19-19.2Q99.04-18.75 98.09-16.2 97.14-13.65 96.54-11.9L96.54-11.9Q95.64-9.35 94.62-5.7 93.59-2.05 93.59-1.25L93.59-1.25Q93.59-1.1 93.69-1.1L93.69-1.1Q94.09-1.1 95.72-2.35 97.34-3.6 97.94-3.6L97.94-3.6Q98.34-3.6 98.34-3.35L98.34-3.35Q98.34-3 97.22-2.2 96.09-1.4 94.64-0.53 93.19 0.35 93.04 0.45L93.04 0.45Q92.69 0.75 92.02 1.48 91.34 2.2 90.77 2.68 90.19 3.15 89.74 3.15L89.74 3.15Q89.09 3.15 89.09 2.6L89.09 2.6Q89.09 2.25 89.89 1.53 90.69 0.8 90.94 0.25L90.94 0.25Q91.79-1.8 94.34-11.7L94.34-11.7Q91.99-8.2 88.12-3.88 84.24 0.45 82.29 0.45L82.29 0.45Q81.59 0.45 81.59-0.45L81.59-0.45Q81.59-1.2 82.14-2.6L82.14-2.6Q82.14-2.65 83.34-5.3 84.54-7.95 85.27-9.88 85.99-11.8 85.99-12.65L85.99-12.65Q85.99-12.9 85.89-13.13 85.79-13.35 85.79-13.5L85.79-13.5Q85.79-13.55 85.89-14.05L85.89-14.05Q86.74-17.25 87.49-18.28 88.24-19.3 89.99-19.3L89.99-19.3Q90.69-19.3 90.84-18.85L90.84-18.85Q84.84-4.1 84.84-3.4L84.84-3.4Q84.84-3.2 84.99-3.2L84.99-3.2Q85.19-3.2 86.19-4L86.19-4Q91.19-7.85 94.99-14.8L94.99-14.8Q95.04-16.35 95.94-18 96.84-19.65 98.59-19.65L98.59-19.65Q99.14-19.65 99.19-19.2ZM105.74 2.7L105.74 2.7Q108.09 2.7 110.61 2.15 113.14 1.6 115.11 0.35 117.09-0.9 117.09-2.5L117.09-2.5Q117.09-2.75 117.04-2.95L117.04-2.95Q116.79-4.6 114.64-5.7 112.49-6.8 109.66-7.58 106.84-8.35 104.06-9.3 101.29-10.25 99.36-12.15 97.44-14.05 97.44-16.9L97.44-16.9Q97.44-20.55 99.46-23.68 101.49-26.8 104.71-28.88 107.94-30.95 111.56-32.3 115.19-33.65 118.84-34.1L118.84-34.1Q120.99-34.4 122.89-34.4L122.89-34.4Q131.44-34.4 131.44-28.75L131.44-28.75Q131.44-25.8 128.64-23.05 125.84-20.3 122.09-20.3L122.09-20.3Q121.74-20.3 121.56-20.43 121.39-20.55 121.39-20.7L121.39-20.7Q121.39-20.8 121.44-20.93 121.49-21.05 121.61-21.13 121.74-21.2 121.89-21.25 122.04-21.3 122.24-21.3L122.24-21.3Q124.79-21.3 127.09-23.23 129.39-25.15 129.39-28L129.39-28Q129.39-29.45 128.76-30.48 128.14-31.5 127.04-32.08 125.94-32.65 124.66-32.9 123.39-33.15 121.89-33.15L121.89-33.15Q121.14-33.15 120.41-33.1 119.69-33.05 118.99-32.95L118.99-32.95Q114.24-32.35 110.06-30.53 105.89-28.7 103.04-25.43 100.19-22.15 100.19-18.15L100.19-18.15Q100.19-15.75 101.54-14.03 102.89-12.3 104.91-11.5 106.94-10.7 109.34-9.95 111.74-9.2 113.86-8.7 115.99-8.2 117.54-7.15 119.09-6.1 119.34-4.6L119.34-4.6 119.39-4Q119.39-1.95 117.16 0 114.94 1.95 111.34 3.18 107.74 4.4 103.94 4.4L103.94 4.4Q98.84 4.4 98.84 0.7L98.84 0.7Q98.84-1.3 100.19-1.3L100.19-1.3Q100.34-1.3 100.44-0.98 100.54-0.65 100.69-0.13 100.84 0.4 101.04 0.75L101.04 0.75Q101.39 1.35 101.86 1.75 102.34 2.15 102.94 2.35 103.54 2.55 104.21 2.63 104.89 2.7 105.74 2.7ZM134.09-16.4L134.09-16.4Q134.09-15.35 133.61-14.53 133.14-13.7 132.59-13.7L132.59-13.7Q131.99-13.7 131.99-14.6L131.99-14.6Q131.99-14.9 132.19-15.7 132.39-16.5 132.39-16.85L132.39-16.85Q132.39-17.65 131.54-17.65L131.54-17.65Q130.94-17.65 129.66-16.82 128.39-16 127.74-15.35L127.74-15.35Q126.79-14.35 124.99-9.88 123.19-5.4 123.19-2.95L123.19-2.95Q123.19-1.1 124.64-1.1L124.64-1.1Q126.49-1.1 128.34-2.53 130.19-3.95 131.34-5.43 132.49-6.9 132.54-6.9L132.54-6.9Q132.79-6.8 132.79-6.55L132.79-6.55Q132.79-5.8 131.59-4.17 130.39-2.55 128.26-1.07 126.14 0.4 124.14 0.4L124.14 0.4Q121.09 0.4 121.09-3.15L121.09-3.15Q121.09-6.6 123.34-11.45 125.59-16.3 127.24-17.05L127.24-17.05Q127.99-17.35 128.86-17.8 129.74-18.25 130.36-18.5 130.99-18.75 131.74-18.75L131.74-18.75Q134.09-18.75 134.09-16.4ZM147.18-14.75L147.18-14.75Q146.78-14.2 146.11-13.68 145.43-13.15 145.08-13.15L145.08-13.15Q144.78-13.15 144.78-13.45L144.78-13.45Q144.78-13.65 145.26-14.85 145.73-16.05 145.73-16.5L145.73-16.5Q145.73-16.85 145.48-16.85L145.48-16.85Q143.73-16.85 140.31-11.45 136.88-6.05 135.23-0.9L135.23-0.9Q134.93-0.5 134.28-0.1 133.63 0.3 133.18 0.3L133.18 0.3Q132.88 0.3 132.73 0.05L132.73 0.05Q132.73-1.3 133.06-2.4 133.38-3.5 133.88-3.7L133.88-3.7Q134.98-7.85 135.43-9.9L135.43-9.9 135.93-12Q136.03-12.35 136.03-12.8L136.03-12.8Q136.03-13.05 135.93-13.25 135.83-13.45 135.83-13.65L135.83-13.65Q135.83-13.95 135.93-14.2L135.93-14.2Q136.73-17.35 137.56-18.5 138.38-19.65 139.98-19.65L139.98-19.65Q140.58-19.65 140.68-19.25L140.68-19.25Q140.63-19.1 139.96-17.5 139.28-15.9 138.71-14.5 138.13-13.1 137.43-10.95 136.73-8.8 136.33-7L136.33-7Q137.98-10.25 141.43-14.83 144.88-19.4 147.13-19.4L147.13-19.4Q148.33-19.4 148.33-17.9L148.33-17.9Q148.33-16.35 147.18-14.75ZM160.13-14.9Q161.08-14.75 161.08-14.35 161.08-13.95 160.33-13.58 159.58-13.2 158.98-13.2L158.98-13.2Q158.98-7.35 155.93-3.2 152.88 0.95 149.88 0.95L149.88 0.95Q146.98 0.95 146.98-3.25L146.98-3.25Q146.98-4.4 147.18-5.55L147.18-5.55Q147.43-6.85 148.08-8.9 148.73-10.95 149.78-13.35 150.83-15.75 152.36-17.43 153.88-19.1 155.43-19.1L155.43-19.1 155.78-19.1Q155.78-19.8 156.18-20.3 156.58-20.8 157.28-20.8L157.28-20.8Q157.98-20.75 158.53-17.88 159.08-15 160.13-14.9L160.13-14.9ZM157.58-13.6L157.58-13.6Q157.13-13.85 156.48-15.38 155.83-16.9 155.58-16.9L155.58-16.9Q154.03-16.9 151.98-12.33 149.93-7.75 149.43-5.1L149.43-5.1Q149.23-3.95 149.23-3L149.23-3Q149.23-0.55 150.63-0.55L150.63-0.55Q152.63-0.55 155.11-4.63 157.58-8.7 157.58-13.6ZM172.43-31.15L172.43-31.15Q169.68-25.45 166.83-17.38 163.98-9.3 162.63-3.25L162.63-3.25Q162.58-3.1 162.58-2.85L162.58-2.85Q162.58-2.25 163.08-2.25L163.08-2.25Q163.38-2.25 164.7-3 166.03-3.75 166.38-3.75L166.38-3.75Q166.68-3.75 166.83-3.55L166.83-3.55Q166.83-2.95 164.33-1.33 161.83 0.3 160.78 0.3L160.78 0.3Q159.83 0.3 159.83-0.6L159.83-0.6Q159.83-1.1 160.03-1.65L160.03-1.65Q161.33-5.2 162.45-8.7 163.58-12.2 165.03-17.03 166.48-21.85 167.18-24.15L167.18-24.15Q167.33-24.6 167.33-25.05L167.33-25.05Q167.33-25.25 167.25-25.43 167.18-25.6 167.18-25.75 167.18-25.9 167.33-26.35L167.33-26.35Q168.33-29.5 169.18-30.55 170.03-31.6 171.68-31.6L171.68-31.6Q172.38-31.6 172.43-31.15ZM181.38-31.15L181.38-31.15Q178.63-25.45 175.78-17.38 172.93-9.3 171.58-3.25L171.58-3.25Q171.53-3.1 171.53-2.85L171.53-2.85Q171.53-2.25 172.03-2.25L172.03-2.25Q172.33-2.25 173.65-3 174.98-3.75 175.33-3.75L175.33-3.75Q175.63-3.75 175.78-3.55L175.78-3.55Q175.78-2.95 173.28-1.33 170.78 0.3 169.73 0.3L169.73 0.3Q168.78 0.3 168.78-0.6L168.78-0.6Q168.78-1.1 168.98-1.65L168.98-1.65Q170.28-5.2 171.4-8.7 172.53-12.2 173.98-17.03 175.43-21.85 176.13-24.15L176.13-24.15Q176.28-24.6 176.28-25.05L176.28-25.05Q176.28-25.25 176.2-25.43 176.13-25.6 176.13-25.75 176.13-25.9 176.28-26.35L176.28-26.35Q177.28-29.5 178.13-30.55 178.98-31.6 180.63-31.6L180.63-31.6Q181.33-31.6 181.38-31.15ZM191.22-17.15L191.22-17.15Q191.12-16.15 189.92-14.3 188.72-12.45 188.07-12.45L188.07-12.45Q187.87-12.45 187.87-12.75L187.87-12.75Q187.87-13.2 188.42-14.58 188.97-15.95 188.97-16.35L188.97-16.35Q188.97-17.1 188.07-17.1L188.07-17.1Q187.92-17.1 186.42-16.85L186.42-16.85Q185.17-16.55 183.15-15.25 181.12-13.95 181.12-12.4L181.12-12.4Q181.12-11.85 181.37-11.4L181.37-11.4Q182.02-10.1 183.65-9.2 185.27-8.3 186.45-7.5 187.62-6.7 187.62-5.4L187.62-5.4Q187.62-3.2 184.25-1.18 180.87 0.85 178.47 0.85L178.47 0.85Q178.07 0.85 177.82 0.53 177.57 0.2 177.57-0.15L177.57-0.15Q177.57-0.75 178.12-0.75L178.12-0.75Q179.77-0.75 182.75-1.78 185.72-2.8 185.72-4L185.72-4Q185.72-4.7 184.6-5.65 183.47-6.6 182.15-7.4 180.82-8.2 179.7-9.33 178.57-10.45 178.57-11.5L178.57-11.5Q178.57-12.35 179.17-13.1L179.17-13.1Q179.62-13.65 180.12-14.18 180.62-14.7 181.07-15.1 181.52-15.5 182.1-15.9 182.67-16.3 183.12-16.6 183.57-16.9 184.17-17.2 184.77-17.5 185.12-17.68 185.47-17.85 186.05-18.1 186.62-18.35 186.85-18.43 187.07-18.5 187.57-18.7 188.07-18.9 188.12-18.9L188.12-18.9Q188.97-19.15 189.42-19.15L189.42-19.15Q191.22-19.15 191.22-17.15Z" opacity="1" transform="matrix(1,0,0,1,0,0)" fill="#000000" class="wordmark-text-0" data-fill-palette-color="quaternary" id="text-0"></path></svg></g></svg></g></svg></g></svg></g><g transform="matrix(1,0,0,1,0,6.872522310830725)"><svg viewBox="0 0 103.2373734752616 96.45039595820056" height="96.45039595820056" width="103.2373734752616"><g><svg xmlns="http://www.w3.org/2000/svg" xmlns:xlink="http://www.w3.org/1999/xlink" version="1.1" x="0" y="0" viewBox="0.00006133158304497469 3.288000000000001 99.99993866841696 93.42579490048524" enable-background="new 0 0 100 100" xml:space="preserve" height="96.45039595820056" width="103.2373734752616" class="icon-icon-0" data-fill-palette-color="accent" id="icon-0"><g fill="#f46036" data-fill-palette-color="accent"><g fill="#f46036" data-fill-palette-color="accent"><rect x="88.951" y="89.749" transform="matrix(0.5151 0.8571 -0.8571 0.5151 123.8577 -35.5391)" width="8.778" height="3.904" fill="#f46036" data-fill-palette-color="accent"></rect><path d="M85.063 81.275h-6.768v2.938c-6.584 6.267-5.266 12.351-5.266 12.351h17.297c0 0 1.318-6.082-5.264-12.347V81.275L85.063 81.275z" fill="#f46036" data-fill-palette-color="accent"></path><path d="M4.652 18.928c0.818-0.101 1.607 0.16 2.291 0.735 0.995 0.836 1.643 2.289 1.732 3.886 0.158 2.862-1.163 5.42-3.068 6.282l7.729-1.71C12.34 21.286 10.49 17.968 8.94 16.367c-1.658-1.712-3.24-1.811-4.021-1.722-2.949 0.336-5.147 4.163-4.9 8.531 0.115 2.044 0.905 3.872 2.113 4.89 0.709 0.597 1.516 0.864 2.313 0.773 1.735-0.2 3.078-2.589 2.933-5.218-0.071-1.243-0.545-2.352-1.271-2.963-0.283-0.237-0.743-0.506-1.305-0.439-0.992 0.115-1.757 1.53-2.255 3.121l-0.13 0.008C1.705 21.083 2.944 19.126 4.652 18.928z" fill="#f46036" data-fill-palette-color="accent"></path><path d="M89.232 11.192c-1.791 0.89-3.041 1.678-3.041 1.678l0.974-1.502c-4.188 0.439-9.166 1.473-14.667 3.611-0.919 1.396-1.872 3.117-2.178 4.71 0 0-0.186-1.645-0.127-3.762-1.291 0.56-2.596 1.17-3.936 1.866-1.891 0.974-3.555 2.022-5.102 3.103-0.553 2.344-1.143 5.422-0.775 7.048 0 0-0.99-1.89-1.252-5.56-9.658 7.606-12.055 16.506-12.625 19.72-6.906 7.478-11.088 13.261-11.088 13.261s1.904-1.141 3.42-2.028c0 0 2.811-3.856 8.857-10.286 2.439-0.619 7.93-2.368 14.45-6.734-1.252-0.688-2.381-1.57-2.703-2.613 0 0 1.653 0.741 4.703 1.198 2.321-1.686 4.726-3.724 7.143-6.139-2.352-0.713-3.014-1.595-3.014-1.595 0.942 0.265 2.74 0.309 4.33 0.281 0.865-0.911 1.731-1.874 2.59-2.882 1.42-1.672 2.875-3.123 4.346-4.396-1.826-0.405-2.17-0.943-2.17-0.943l4.027-0.542C90.796 11.639 100 11.818 100 11.818S95.875 10.771 89.232 11.192z" fill="#f46036" data-fill-palette-color="accent"></path><path d="M67.917 72.323l-43.92 9.688c0 0 2.83 1.743 2.91 6.605 0 4.785-3.195 7.964-3.195 7.964l41.99-9.282c3.743-1.008 6.149-4.693 6.153-9.063 0.004-1.984-0.647-3.825-1.742-4.92C69.466 72.668 68.705 72.323 67.917 72.323z" fill="#f46036" data-fill-palette-color="accent"></path><path d="M25.304 86.416c-1.105-4.061-3.834-3.855-3.834-3.855-1.742 0.099-3.22 2.407-3.226 5.043-0.002 1.246 0.407 2.379 1.099 3.031 0.263 0.25 0.717 0.535 1.273 0.51 1-0.058 1.848-1.428 2.435-2.985h0.131c0.579 2.303-0.769 4.184-2.488 4.282-0.811 0.058-1.593-0.25-2.244-0.861-0.945-0.895-1.508-2.38-1.506-3.979 0.01-3.203 1.832-5.925 4.119-6.289 0.053-0.008 22.671-4.977 36.458-8.004-0.215-3.613-0.008-8.151 0.845-13.896 0.235-1.594 0.456-3.141 0.657-4.645 0.781-5.824 1.302-10.98 1.613-15.569-5.043 3.188-9.686 4.463-12.185 5.146-5.611 6-8.849 10.542-8.849 10.542l-6.543 4.312c0 0-0.973-4.576 12.049-17.922 0.809-3.973 3.661-12.221 13.27-19.788l2.164-1.688c-0.813-7.38-2.582-11.5-4.469-13.704-1.885-2.291-3.92-2.807-5.344-2.809L5.318 13.327c1.107-0.006 2.825 0.35 4.556 2.137 4.313 4.455 8.306 17.489 2.838 54.279-2.311 15.56 0.17 22.073 2.656 24.8 1.88 2.061 3.936 2.208 4.766 2.165C25.47 95.951 25.912 88.652 25.304 86.416z" fill="#f46036" data-fill-palette-color="accent"></path></g></g></svg></g></svg></g></svg></g><defs></defs><mask id="0ddeb5bf-24bf-49f1-8bc2-36cc4db642cc"><g id="SvgjsG2446"><svg viewBox="0 0 395.52 85.06168142126785" height="85.06168142126785" width="395.52"><g><svg viewBox="0 0 512.3870105775931 110.19544057986201" height="85.06168142126785" width="395.52"><g transform="matrix(1,0,0,1,116.8670105775931,0)"><svg viewBox="0 0 395.52 110.19544057986201" height="110.19544057986201" width="395.52"><g id="SvgjsG2445"><svg viewBox="0 0 395.52 110.19544057986201" height="110.19544057986201" width="395.52" id="SvgjsSvg2444"><g><svg viewBox="0 0 395.52 110.19544057986201" height="110.19544057986201" width="395.52"><path d="M394.594 23.635C392.735 12.197 387.435 9.017 387.435 9.017 371.165-2.765 350.86-0.225 332.619 1.467 300.414 1.536 268.339 4.053 236.208 5.402 168.767 5.608 100.749 2.222 33.643 10.572 27.339 13.135-6.54 11.076 1.121 25.099 3.129 30.932 10.456 37.406 10.232 42.76 11.236 43.698 12.631 41.547 13.226 42.897 15.309 46.534 18.711 44.818 21.501 46.969 17.614 52.711 20.403 57.492 23.062 62.502 18.377 63.806 12.371 63.188 9.675 67.512 9.396 70.646 7.89 70.051 6.235 69.914 5.026 69.822 2.59 70.166 2.999 71.149 4.394 74.512-1.594 76.457 2.162 79.751-0.422 83.32 3.948 86.408 3.353 90.274 3.278 91.052 3.687 91.715 4.338 91.898 7.22 92.882 3.018 94.804 3.464 96.885 33.029 111.115 65.104 101.278 95.394 107.82 103.259 103.245 97.346 109.445 100.489 108.484 102.943 107.363 104.728 112.007 107.499 109.376 107.927 108.621 107.276 106.837 108.8 107.18 109.6 107.363 110.307 107.317 110.418 106.265 110.586 104.686 109.117 105.67 108.726 104.846 112.947 100.683 111.906 110.588 115.866 110.177 115.68 108.964 114.528 107.226 116.889 107.454 119.232 105.716 119.306 104.274 121.389 108.186 121.463 109.033 121.835 109.628 122.43 110.039 128.938 105.784 135.409 111.549 142.233 109.628 146.417 107.523 150.433 110.771 154.672 109.971 156.16 109.33 157.666 108.186 159.098 110.108 176.632 110.52 195.319 108.804 211.943 110.177 256.364 107.614 303.836 111.229 350.674 107.843 361.719 106.539 373.192 104.686 383.958 103.199 383.958 103.199 392.679 99.127 392.679 80.826S394.538 64.813 394.817 50.24C395.096 35.668 396.398 35.073 394.538 23.635Z" opacity="1" fill="white"></path><g transform="matrix(1,0,0,1,55.76832,26.230666666666668)"><svg width="283.98335999999995" viewBox="0.4 -34.4 190.82 38.8" height="57.73410724652867" data-palette-color="#000000"><path d="M24.8-34.2L24.8-34.2Q28.7-34.2 28.7-32.25L28.7-32.25Q28.7-31.15 27.35-29.6L27.35-29.6Q39.4-28 39.4-17.15L39.4-17.15Q39.4-13.5 37.93-10.2 36.45-6.9 33.98-4.48 31.5-2.05 28.35-0.25 25.2 1.55 21.73 2.45 18.25 3.35 14.9 3.35L14.9 3.35Q11.9 3.35 9.33 2.58 6.75 1.8 4.73 0.25 2.7-1.3 1.55-3.85 0.4-6.4 0.4-9.65L0.4-9.65Q0.4-18.2 8.1-26.25L8.1-26.25Q5.55-25.35 4.5-24.75L4.5-24.75Q4.25-24.65 4.05-24.55 3.85-24.45 3.65-24.35 3.45-24.25 3.28-24.2 3.1-24.15 2.95-24.1 2.8-24.05 2.68-24.03 2.55-24 2.48-23.98 2.4-23.95 2.3-23.95L2.3-23.95Q2.1-24 2.05-24.1L2.05-24.1Q2.05-24.65 4.1-25.7L4.1-25.7Q7.1-27.3 10.25-28.25L10.25-28.25Q16-33.15 22.85-34.05L22.85-34.05Q22.95-34.05 23.05-34.08 23.15-34.1 23.25-34.1 23.35-34.1 23.48-34.13 23.6-34.15 23.7-34.15 23.8-34.15 23.9-34.15 24-34.15 24.13-34.15 24.25-34.15 24.35-34.18 24.45-34.2 24.58-34.2 24.7-34.2 24.8-34.2ZM25.9-29.75L25.9-29.75Q26.55-30.95 26.55-31.6L26.55-31.6Q26.55-32.65 24.65-32.65L24.65-32.65Q24.45-32.65 24.25-32.65 24.05-32.65 23.83-32.63 23.6-32.6 23.35-32.6L23.35-32.6Q18.35-32.1 14.2-29.25L14.2-29.25Q17.7-29.95 21.65-29.95L21.65-29.95Q22.65-29.95 23.73-29.9 24.8-29.85 25.9-29.75ZM3.05-10.3L3.05-10.3Q3.05-7.8 3.73-5.73 4.4-3.65 5.58-2.23 6.75-0.8 8.38 0.18 10 1.15 11.9 1.63 13.8 2.1 15.95 2.1L15.95 2.1Q18.85 2.1 21.85 1.25 24.85 0.4 27.58-1.28 30.3-2.95 32.45-5.2 34.6-7.45 35.88-10.55 37.15-13.65 37.15-17.1L37.15-17.1Q37.15-21.6 34.23-24.83 31.3-28.05 26.7-28.55L26.7-28.55Q26.35-28.1 25.45-27.15 24.55-26.2 22.48-24.53 20.4-22.85 18.55-21.9L18.55-21.9Q16.25-20.8 15.75-20.8L15.75-20.8Q15.6-20.8 15.6-20.85L15.6-20.85Q15.6-21.35 18.35-23.15L18.35-23.15Q22.25-25.75 25.15-28.65L25.15-28.65Q24-28.7 22.75-28.7L22.75-28.7Q19.9-28.7 17.1-28.33 14.3-27.95 11.75-27.35L11.75-27.35Q7.35-23.35 5.2-18.93 3.05-14.5 3.05-10.3ZM44.15-18.75L47.35-18.75 47.55-19.45Q47.7-20.05 47.7-20.3L47.7-20.3Q47.7-20.5 47.6-20.68 47.5-20.85 47.5-21 47.5-21.15 47.65-21.6L47.65-21.6Q48.65-24.8 49.47-25.85 50.3-26.9 51.9-26.9L51.9-26.9Q52.6-26.9 52.7-26.45L52.7-26.45Q51.6-24.1 49.65-18.75L49.65-18.75 54.5-18.75Q55.9-18.75 55.9-18.45L55.9-18.45Q55.9-17.95 53.6-17.68 51.3-17.4 49.2-17.4L49.2-17.4Q46.7-10.35 45.15-3.9L45.15-3.9Q44.9-2.9 44.9-2.45L44.9-2.45Q44.9-1.6 45.45-1.6L45.45-1.6Q46.45-1.6 48.37-3.38 50.3-5.15 50.45-5.15L50.45-5.15Q50.7-5.15 50.7-4.85L50.7-4.85Q50.7-4 50.15-3.75L50.15-3.75Q45.55 0.4 43.7 0.4L43.7 0.4Q42.55 0.4 42.55-1.05L42.55-1.05Q42.55-1.85 43.75-5.75L43.75-5.75Q43.9-6.25 46.95-17.2L46.95-17.2Q45.75-17 43.6-17L43.6-17Q42.45-17 42.45-17.45L42.45-17.45Q42.45-17.8 43.1-18.28 43.75-18.75 44.15-18.75L44.15-18.75ZM67.95-4L67.95-4Q67.9-3.95 67.5-3.58 67.1-3.2 66.85-3 66.6-2.8 66.12-2.38 65.65-1.95 65.3-1.7 64.95-1.45 64.45-1.1 63.95-0.75 63.57-0.58 63.2-0.4 62.8-0.25 62.4-0.1 62.05-0.1L62.05-0.1Q61-0.1 60.8-1.35L60.8-1.35Q60.8-3.45 62.45-9.1L62.45-9.1Q55.75 0.15 52.85 0.15L52.85 0.15Q51.65 0.15 51.65-1.65L51.65-1.65Q51.65-3.95 53.02-7.88 54.4-11.8 56.4-14.98 58.4-18.15 59.9-18.15L59.9-18.15 60.05-18.15 60.6-18.55Q61.05-19.05 62-19.05L62-19.05Q62.75-19.05 64.1-18.65 65.45-18.25 65.6-18.25L65.6-18.25Q65.8-18.25 66.12-18.65 66.45-19.05 66.9-19.05L66.9-19.05Q68.15-19.05 68.15-17.95L68.15-17.95Q68.15-17.5 67.97-16.95 67.8-16.4 67.47-15.68 67.15-14.95 67.1-14.8L67.1-14.8Q67.05-14.7 66.62-14.5 66.2-14.3 66.15-14.15L66.15-14.15Q65.05-11.05 64.2-7.53 63.35-4 63.35-3.2L63.35-3.2Q63.35-1.95 64.05-1.95 64.75-1.95 65.77-2.8 66.8-3.65 67.55-4.5 68.3-5.35 68.35-5.35L68.35-5.35Q68.45-5.35 68.45-5.15L68.45-5.15Q68.45-4.4 67.95-4ZM64.8-17.3L64.65-17.3Q64.35-17.3 63.62-17.4 62.9-17.5 62.4-17.5L62.4-17.5Q61.7-17.5 60.9-17.3L60.9-17.3Q59.65-16.95 56.8-11.38 53.95-5.8 53.95-3.05L53.95-3.05Q53.95-2.2 54.45-2.2L54.45-2.2Q55.5-2.2 58.17-5.25 60.85-8.3 61.7-9.6L61.7-9.6Q62.95-11.6 64-13.93 65.05-16.25 65.05-17L65.05-17Q65.05-17.3 64.8-17.3L64.8-17.3ZM84.09-17.65L84.09-17.65Q80.99-15.85 78.22-12.83 75.44-9.8 75.44-8.85L75.44-8.85Q75.44-7.05 76.99-4.35 78.54-1.65 79.74-0.65L79.74-0.65Q80.69 0.15 80.69 0.65L80.69 0.65Q80.69 0.95 80.24 0.95L80.24 0.95Q79.24 0.95 77.94-0.43 76.64-1.8 75.72-3.23 74.79-4.65 73.79-6.5L73.79-6.5 72.74-8.35Q70.59-2.4 70.49-0.85L70.49-0.85Q70.49-0.5 69.57 0.28 68.64 1.05 68.09 1.05L68.09 1.05Q67.74 1.05 67.74 0.6L67.74 0.6Q67.74 0.4 67.99-0.35L67.99-0.35Q69.39-3.85 70.69-7.73 71.99-11.6 73.59-16.68 75.19-21.75 75.99-24.15L75.99-24.15Q76.19-24.75 76.19-25.05L76.19-25.05Q76.19-25.25 76.12-25.43 76.04-25.6 76.04-25.7L76.04-25.7Q76.04-25.9 76.19-26.35L76.19-26.35Q77.34-29.55 78.14-30.58 78.94-31.6 80.59-31.6L80.59-31.6Q81.29-31.6 81.34-31.15L81.34-31.15Q78.34-25.1 76.47-20.3 74.59-15.5 73.14-9.7L73.14-9.7 75.44-11.75Q77.74-13.8 80.24-15.98 82.74-18.15 83.09-18.45L83.09-18.45Q84.44-19.45 85.14-19.45L85.14-19.45Q85.44-19.45 85.44-19.25L85.44-19.25Q85.44-18.7 84.09-17.65ZM99.19-19.2L99.19-19.2Q99.04-18.75 98.09-16.2 97.14-13.65 96.54-11.9L96.54-11.9Q95.64-9.35 94.62-5.7 93.59-2.05 93.59-1.25L93.59-1.25Q93.59-1.1 93.69-1.1L93.69-1.1Q94.09-1.1 95.72-2.35 97.34-3.6 97.94-3.6L97.94-3.6Q98.34-3.6 98.34-3.35L98.34-3.35Q98.34-3 97.22-2.2 96.09-1.4 94.64-0.53 93.19 0.35 93.04 0.45L93.04 0.45Q92.69 0.75 92.02 1.48 91.34 2.2 90.77 2.68 90.19 3.15 89.74 3.15L89.74 3.15Q89.09 3.15 89.09 2.6L89.09 2.6Q89.09 2.25 89.89 1.53 90.69 0.8 90.94 0.25L90.94 0.25Q91.79-1.8 94.34-11.7L94.34-11.7Q91.99-8.2 88.12-3.88 84.24 0.45 82.29 0.45L82.29 0.45Q81.59 0.45 81.59-0.45L81.59-0.45Q81.59-1.2 82.14-2.6L82.14-2.6Q82.14-2.65 83.34-5.3 84.54-7.95 85.27-9.88 85.99-11.8 85.99-12.65L85.99-12.65Q85.99-12.9 85.89-13.13 85.79-13.35 85.79-13.5L85.79-13.5Q85.79-13.55 85.89-14.05L85.89-14.05Q86.74-17.25 87.49-18.28 88.24-19.3 89.99-19.3L89.99-19.3Q90.69-19.3 90.84-18.85L90.84-18.85Q84.84-4.1 84.84-3.4L84.84-3.4Q84.84-3.2 84.99-3.2L84.99-3.2Q85.19-3.2 86.19-4L86.19-4Q91.19-7.85 94.99-14.8L94.99-14.8Q95.04-16.35 95.94-18 96.84-19.65 98.59-19.65L98.59-19.65Q99.14-19.65 99.19-19.2ZM105.74 2.7L105.74 2.7Q108.09 2.7 110.61 2.15 113.14 1.6 115.11 0.35 117.09-0.9 117.09-2.5L117.09-2.5Q117.09-2.75 117.04-2.95L117.04-2.95Q116.79-4.6 114.64-5.7 112.49-6.8 109.66-7.58 106.84-8.35 104.06-9.3 101.29-10.25 99.36-12.15 97.44-14.05 97.44-16.9L97.44-16.9Q97.44-20.55 99.46-23.68 101.49-26.8 104.71-28.88 107.94-30.95 111.56-32.3 115.19-33.65 118.84-34.1L118.84-34.1Q120.99-34.4 122.89-34.4L122.89-34.4Q131.44-34.4 131.44-28.75L131.44-28.75Q131.44-25.8 128.64-23.05 125.84-20.3 122.09-20.3L122.09-20.3Q121.74-20.3 121.56-20.43 121.39-20.55 121.39-20.7L121.39-20.7Q121.39-20.8 121.44-20.93 121.49-21.05 121.61-21.13 121.74-21.2 121.89-21.25 122.04-21.3 122.24-21.3L122.24-21.3Q124.79-21.3 127.09-23.23 129.39-25.15 129.39-28L129.39-28Q129.39-29.45 128.76-30.48 128.14-31.5 127.04-32.08 125.94-32.65 124.66-32.9 123.39-33.15 121.89-33.15L121.89-33.15Q121.14-33.15 120.41-33.1 119.69-33.05 118.99-32.95L118.99-32.95Q114.24-32.35 110.06-30.53 105.89-28.7 103.04-25.43 100.19-22.15 100.19-18.15L100.19-18.15Q100.19-15.75 101.54-14.03 102.89-12.3 104.91-11.5 106.94-10.7 109.34-9.95 111.74-9.2 113.86-8.7 115.99-8.2 117.54-7.15 119.09-6.1 119.34-4.6L119.34-4.6 119.39-4Q119.39-1.95 117.16 0 114.94 1.95 111.34 3.18 107.74 4.4 103.94 4.4L103.94 4.4Q98.84 4.4 98.84 0.7L98.84 0.7Q98.84-1.3 100.19-1.3L100.19-1.3Q100.34-1.3 100.44-0.98 100.54-0.65 100.69-0.13 100.84 0.4 101.04 0.75L101.04 0.75Q101.39 1.35 101.86 1.75 102.34 2.15 102.94 2.35 103.54 2.55 104.21 2.63 104.89 2.7 105.74 2.7ZM134.09-16.4L134.09-16.4Q134.09-15.35 133.61-14.53 133.14-13.7 132.59-13.7L132.59-13.7Q131.99-13.7 131.99-14.6L131.99-14.6Q131.99-14.9 132.19-15.7 132.39-16.5 132.39-16.85L132.39-16.85Q132.39-17.65 131.54-17.65L131.54-17.65Q130.94-17.65 129.66-16.82 128.39-16 127.74-15.35L127.74-15.35Q126.79-14.35 124.99-9.88 123.19-5.4 123.19-2.95L123.19-2.95Q123.19-1.1 124.64-1.1L124.64-1.1Q126.49-1.1 128.34-2.53 130.19-3.95 131.34-5.43 132.49-6.9 132.54-6.9L132.54-6.9Q132.79-6.8 132.79-6.55L132.79-6.55Q132.79-5.8 131.59-4.17 130.39-2.55 128.26-1.07 126.14 0.4 124.14 0.4L124.14 0.4Q121.09 0.4 121.09-3.15L121.09-3.15Q121.09-6.6 123.34-11.45 125.59-16.3 127.24-17.05L127.24-17.05Q127.99-17.35 128.86-17.8 129.74-18.25 130.36-18.5 130.99-18.75 131.74-18.75L131.74-18.75Q134.09-18.75 134.09-16.4ZM147.18-14.75L147.18-14.75Q146.78-14.2 146.11-13.68 145.43-13.15 145.08-13.15L145.08-13.15Q144.78-13.15 144.78-13.45L144.78-13.45Q144.78-13.65 145.26-14.85 145.73-16.05 145.73-16.5L145.73-16.5Q145.73-16.85 145.48-16.85L145.48-16.85Q143.73-16.85 140.31-11.45 136.88-6.05 135.23-0.9L135.23-0.9Q134.93-0.5 134.28-0.1 133.63 0.3 133.18 0.3L133.18 0.3Q132.88 0.3 132.73 0.05L132.73 0.05Q132.73-1.3 133.06-2.4 133.38-3.5 133.88-3.7L133.88-3.7Q134.98-7.85 135.43-9.9L135.43-9.9 135.93-12Q136.03-12.35 136.03-12.8L136.03-12.8Q136.03-13.05 135.93-13.25 135.83-13.45 135.83-13.65L135.83-13.65Q135.83-13.95 135.93-14.2L135.93-14.2Q136.73-17.35 137.56-18.5 138.38-19.65 139.98-19.65L139.98-19.65Q140.58-19.65 140.68-19.25L140.68-19.25Q140.63-19.1 139.96-17.5 139.28-15.9 138.71-14.5 138.13-13.1 137.43-10.95 136.73-8.8 136.33-7L136.33-7Q137.98-10.25 141.43-14.83 144.88-19.4 147.13-19.4L147.13-19.4Q148.33-19.4 148.33-17.9L148.33-17.9Q148.33-16.35 147.18-14.75ZM160.13-14.9Q161.08-14.75 161.08-14.35 161.08-13.95 160.33-13.58 159.58-13.2 158.98-13.2L158.98-13.2Q158.98-7.35 155.93-3.2 152.88 0.95 149.88 0.95L149.88 0.95Q146.98 0.95 146.98-3.25L146.98-3.25Q146.98-4.4 147.18-5.55L147.18-5.55Q147.43-6.85 148.08-8.9 148.73-10.95 149.78-13.35 150.83-15.75 152.36-17.43 153.88-19.1 155.43-19.1L155.43-19.1 155.78-19.1Q155.78-19.8 156.18-20.3 156.58-20.8 157.28-20.8L157.28-20.8Q157.98-20.75 158.53-17.88 159.08-15 160.13-14.9L160.13-14.9ZM157.58-13.6L157.58-13.6Q157.13-13.85 156.48-15.38 155.83-16.9 155.58-16.9L155.58-16.9Q154.03-16.9 151.98-12.33 149.93-7.75 149.43-5.1L149.43-5.1Q149.23-3.95 149.23-3L149.23-3Q149.23-0.55 150.63-0.55L150.63-0.55Q152.63-0.55 155.11-4.63 157.58-8.7 157.58-13.6ZM172.43-31.15L172.43-31.15Q169.68-25.45 166.83-17.38 163.98-9.3 162.63-3.25L162.63-3.25Q162.58-3.1 162.58-2.85L162.58-2.85Q162.58-2.25 163.08-2.25L163.08-2.25Q163.38-2.25 164.7-3 166.03-3.75 166.38-3.75L166.38-3.75Q166.68-3.75 166.83-3.55L166.83-3.55Q166.83-2.95 164.33-1.33 161.83 0.3 160.78 0.3L160.78 0.3Q159.83 0.3 159.83-0.6L159.83-0.6Q159.83-1.1 160.03-1.65L160.03-1.65Q161.33-5.2 162.45-8.7 163.58-12.2 165.03-17.03 166.48-21.85 167.18-24.15L167.18-24.15Q167.33-24.6 167.33-25.05L167.33-25.05Q167.33-25.25 167.25-25.43 167.18-25.6 167.18-25.75 167.18-25.9 167.33-26.35L167.33-26.35Q168.33-29.5 169.18-30.55 170.03-31.6 171.68-31.6L171.68-31.6Q172.38-31.6 172.43-31.15ZM181.38-31.15L181.38-31.15Q178.63-25.45 175.78-17.38 172.93-9.3 171.58-3.25L171.58-3.25Q171.53-3.1 171.53-2.85L171.53-2.85Q171.53-2.25 172.03-2.25L172.03-2.25Q172.33-2.25 173.65-3 174.98-3.75 175.33-3.75L175.33-3.75Q175.63-3.75 175.78-3.55L175.78-3.55Q175.78-2.95 173.28-1.33 170.78 0.3 169.73 0.3L169.73 0.3Q168.78 0.3 168.78-0.6L168.78-0.6Q168.78-1.1 168.98-1.65L168.98-1.65Q170.28-5.2 171.4-8.7 172.53-12.2 173.98-17.03 175.43-21.85 176.13-24.15L176.13-24.15Q176.28-24.6 176.28-25.05L176.28-25.05Q176.28-25.25 176.2-25.43 176.13-25.6 176.13-25.75 176.13-25.9 176.28-26.35L176.28-26.35Q177.28-29.5 178.13-30.55 178.98-31.6 180.63-31.6L180.63-31.6Q181.33-31.6 181.38-31.15ZM191.22-17.15L191.22-17.15Q191.12-16.15 189.92-14.3 188.72-12.45 188.07-12.45L188.07-12.45Q187.87-12.45 187.87-12.75L187.87-12.75Q187.87-13.2 188.42-14.58 188.97-15.95 188.97-16.35L188.97-16.35Q188.97-17.1 188.07-17.1L188.07-17.1Q187.92-17.1 186.42-16.85L186.42-16.85Q185.17-16.55 183.15-15.25 181.12-13.95 181.12-12.4L181.12-12.4Q181.12-11.85 181.37-11.4L181.37-11.4Q182.02-10.1 183.65-9.2 185.27-8.3 186.45-7.5 187.62-6.7 187.62-5.4L187.62-5.4Q187.62-3.2 184.25-1.18 180.87 0.85 178.47 0.85L178.47 0.85Q178.07 0.85 177.82 0.53 177.57 0.2 177.57-0.15L177.57-0.15Q177.57-0.75 178.12-0.75L178.12-0.75Q179.77-0.75 182.75-1.78 185.72-2.8 185.72-4L185.72-4Q185.72-4.7 184.6-5.65 183.47-6.6 182.15-7.4 180.82-8.2 179.7-9.33 178.57-10.45 178.57-11.5L178.57-11.5Q178.57-12.35 179.17-13.1L179.17-13.1Q179.62-13.65 180.12-14.18 180.62-14.7 181.07-15.1 181.52-15.5 182.1-15.9 182.67-16.3 183.12-16.6 183.57-16.9 184.17-17.2 184.77-17.5 185.12-17.68 185.47-17.85 186.05-18.1 186.62-18.35 186.85-18.43 187.07-18.5 187.57-18.7 188.07-18.9 188.12-18.9L188.12-18.9Q188.97-19.15 189.42-19.15L189.42-19.15Q191.22-19.15 191.22-17.15Z" opacity="1" transform="matrix(1,0,0,1,0,0)" fill="black" class="wordmark-text-0" id="SvgjsPath2443"></path></svg></g></svg></g></svg></g></svg></g><g transform="matrix(1,0,0,1,0,6.872522310830725)"><svg viewBox="0 0 103.2373734752616 96.45039595820056" height="96.45039595820056" width="103.2373734752616"><g><svg xmlns="http://www.w3.org/2000/svg" xmlns:xlink="http://www.w3.org/1999/xlink" version="1.1" x="0" y="0" viewBox="0.00006133158304497469 3.288000000000001 99.99993866841696 93.42579490048524" enable-background="new 0 0 100 100" xml:space="preserve" height="96.45039595820056" width="103.2373734752616" class="icon-icon-0" data-fill-palette-color="accent" id="SvgjsSvg2442"><g fill="black"><g fill="black"><rect x="88.951" y="89.749" transform="matrix(0.5151 0.8571 -0.8571 0.5151 123.8577 -35.5391)" width="8.778" height="3.904" fill="black"></rect><path d="M85.063 81.275h-6.768v2.938c-6.584 6.267-5.266 12.351-5.266 12.351h17.297c0 0 1.318-6.082-5.264-12.347V81.275L85.063 81.275z" fill="black"></path><path d="M4.652 18.928c0.818-0.101 1.607 0.16 2.291 0.735 0.995 0.836 1.643 2.289 1.732 3.886 0.158 2.862-1.163 5.42-3.068 6.282l7.729-1.71C12.34 21.286 10.49 17.968 8.94 16.367c-1.658-1.712-3.24-1.811-4.021-1.722-2.949 0.336-5.147 4.163-4.9 8.531 0.115 2.044 0.905 3.872 2.113 4.89 0.709 0.597 1.516 0.864 2.313 0.773 1.735-0.2 3.078-2.589 2.933-5.218-0.071-1.243-0.545-2.352-1.271-2.963-0.283-0.237-0.743-0.506-1.305-0.439-0.992 0.115-1.757 1.53-2.255 3.121l-0.13 0.008C1.705 21.083 2.944 19.126 4.652 18.928z" fill="black"></path><path d="M89.232 11.192c-1.791 0.89-3.041 1.678-3.041 1.678l0.974-1.502c-4.188 0.439-9.166 1.473-14.667 3.611-0.919 1.396-1.872 3.117-2.178 4.71 0 0-0.186-1.645-0.127-3.762-1.291 0.56-2.596 1.17-3.936 1.866-1.891 0.974-3.555 2.022-5.102 3.103-0.553 2.344-1.143 5.422-0.775 7.048 0 0-0.99-1.89-1.252-5.56-9.658 7.606-12.055 16.506-12.625 19.72-6.906 7.478-11.088 13.261-11.088 13.261s1.904-1.141 3.42-2.028c0 0 2.811-3.856 8.857-10.286 2.439-0.619 7.93-2.368 14.45-6.734-1.252-0.688-2.381-1.57-2.703-2.613 0 0 1.653 0.741 4.703 1.198 2.321-1.686 4.726-3.724 7.143-6.139-2.352-0.713-3.014-1.595-3.014-1.595 0.942 0.265 2.74 0.309 4.33 0.281 0.865-0.911 1.731-1.874 2.59-2.882 1.42-1.672 2.875-3.123 4.346-4.396-1.826-0.405-2.17-0.943-2.17-0.943l4.027-0.542C90.796 11.639 100 11.818 100 11.818S95.875 10.771 89.232 11.192z" fill="black"></path><path d="M67.917 72.323l-43.92 9.688c0 0 2.83 1.743 2.91 6.605 0 4.785-3.195 7.964-3.195 7.964l41.99-9.282c3.743-1.008 6.149-4.693 6.153-9.063 0.004-1.984-0.647-3.825-1.742-4.92C69.466 72.668 68.705 72.323 67.917 72.323z" fill="black"></path><path d="M25.304 86.416c-1.105-4.061-3.834-3.855-3.834-3.855-1.742 0.099-3.22 2.407-3.226 5.043-0.002 1.246 0.407 2.379 1.099 3.031 0.263 0.25 0.717 0.535 1.273 0.51 1-0.058 1.848-1.428 2.435-2.985h0.131c0.579 2.303-0.769 4.184-2.488 4.282-0.811 0.058-1.593-0.25-2.244-0.861-0.945-0.895-1.508-2.38-1.506-3.979 0.01-3.203 1.832-5.925 4.119-6.289 0.053-0.008 22.671-4.977 36.458-8.004-0.215-3.613-0.008-8.151 0.845-13.896 0.235-1.594 0.456-3.141 0.657-4.645 0.781-5.824 1.302-10.98 1.613-15.569-5.043 3.188-9.686 4.463-12.185 5.146-5.611 6-8.849 10.542-8.849 10.542l-6.543 4.312c0 0-0.973-4.576 12.049-17.922 0.809-3.973 3.661-12.221 13.27-19.788l2.164-1.688c-0.813-7.38-2.582-11.5-4.469-13.704-1.885-2.291-3.92-2.807-5.344-2.809L5.318 13.327c1.107-0.006 2.825 0.35 4.556 2.137 4.313 4.455 8.306 17.489 2.838 54.279-2.311 15.56 0.17 22.073 2.656 24.8 1.88 2.061 3.936 2.208 4.766 2.165C25.47 95.951 25.912 88.652 25.304 86.416z" fill="black"></path></g></g></svg></g></svg></g></svg></g><defs><mask></mask></defs></svg><rect width="395.52" height="85.06168142126785" fill="black" stroke="none" visibility="hidden"></rect></g></mask><linearGradient x1="0" x2="1" y1="0.578" y2="0.595" id="2ef95583-c928-4ad5-a854-e002bee73627"><stop stop-color="#6ee2f5" offset="0"></stop><stop stop-color="#6454f0" offset="1"></stop></linearGradient></svg><rect width="395.52" height="85.06168142126785" fill="none" stroke="none" visibility="hidden"></rect></g></svg></g></svg>