<svg xmlns="http://www.w3.org/2000/svg" xmlns:xlink="http://www.w3.org/1999/xlink" version="1.1" x="0" y="0" viewBox="0.00006133158304497469 3.288000000000001 99.99993866841696 93.42579490048524" enable-background="new 0 0 100 100" xml:space="preserve" height="96.45039595820056" width="103.2373734752616" class="icon-icon-0" data-fill-palette-color="accent" id="icon-0">
                  <g fill="#f46036" data-fill-palette-color="accent">
                    <g fill="#f46036" data-fill-palette-color="accent">
                      <rect x="88.951" y="89.749" transform="matrix(0.5151 0.8571 -0.8571 0.5151 123.8577 -35.5391)" width="8.778" height="3.904" fill="#f46036" data-fill-palette-color="accent"/>
                      <path d="M85.063 81.275h-6.768v2.938c-6.584 6.267-5.266 12.351-5.266 12.351h17.297c0 0 1.318-6.082-5.264-12.347V81.275L85.063 81.275z" fill="#f46036" data-fill-palette-color="accent"/>
                      <path d="M4.652 18.928c0.818-0.101 1.607 0.16 2.291 0.735 0.995 0.836 1.643 2.289 1.732 3.886 0.158 2.862-1.163 5.42-3.068 6.282l7.729-1.71C12.34 21.286 10.49 17.968 8.94 16.367c-1.658-1.712-3.24-1.811-4.021-1.722-2.949 0.336-5.147 4.163-4.9 8.531 0.115 2.044 0.905 3.872 2.113 4.89 0.709 0.597 1.516 0.864 2.313 0.773 1.735-0.2 3.078-2.589 2.933-5.218-0.071-1.243-0.545-2.352-1.271-2.963-0.283-0.237-0.743-0.506-1.305-0.439-0.992 0.115-1.757 1.53-2.255 3.121l-0.13 0.008C1.705 21.083 2.944 19.126 4.652 18.928z" fill="#f46036" data-fill-palette-color="accent"/>
                      <path d="M89.232 11.192c-1.791 0.89-3.041 1.678-3.041 1.678l0.974-1.502c-4.188 0.439-9.166 1.473-14.667 3.611-0.919 1.396-1.872 3.117-2.178 4.71 0 0-0.186-1.645-0.127-3.762-1.291 0.56-2.596 1.17-3.936 1.866-1.891 0.974-3.555 2.022-5.102 3.103-0.553 2.344-1.143 5.422-0.775 7.048 0 0-0.99-1.89-1.252-5.56-9.658 7.606-12.055 16.506-12.625 19.72-6.906 7.478-11.088 13.261-11.088 13.261s1.904-1.141 3.42-2.028c0 0 2.811-3.856 8.857-10.286 2.439-0.619 7.93-2.368 14.45-6.734-1.252-0.688-2.381-1.57-2.703-2.613 0 0 1.653 0.741 4.703 1.198 2.321-1.686 4.726-3.724 7.143-6.139-2.352-0.713-3.014-1.595-3.014-1.595 0.942 0.265 2.74 0.309 4.33 0.281 0.865-0.911 1.731-1.874 2.59-2.882 1.42-1.672 2.875-3.123 4.346-4.396-1.826-0.405-2.17-0.943-2.17-0.943l4.027-0.542C90.796 11.639 100 11.818 100 11.818S95.875 10.771 89.232 11.192z" fill="#f46036" data-fill-palette-color="accent"/>
                      <path d="M67.917 72.323l-43.92 9.688c0 0 2.83 1.743 2.91 6.605 0 4.785-3.195 7.964-3.195 7.964l41.99-9.282c3.743-1.008 6.149-4.693 6.153-9.063 0.004-1.984-0.647-3.825-1.742-4.92C69.466 72.668 68.705 72.323 67.917 72.323z" fill="#f46036" data-fill-palette-color="accent"/>
                      <path d="M25.304 86.416c-1.105-4.061-3.834-3.855-3.834-3.855-1.742 0.099-3.22 2.407-3.226 5.043-0.002 1.246 0.407 2.379 1.099 3.031 0.263 0.25 0.717 0.535 1.273 0.51 1-0.058 1.848-1.428 2.435-2.985h0.131c0.579 2.303-0.769 4.184-2.488 4.282-0.811 0.058-1.593-0.25-2.244-0.861-0.945-0.895-1.508-2.38-1.506-3.979 0.01-3.203 1.832-5.925 4.119-6.289 0.053-0.008 22.671-4.977 36.458-8.004-0.215-3.613-0.008-8.151 0.845-13.896 0.235-1.594 0.456-3.141 0.657-4.645 0.781-5.824 1.302-10.98 1.613-15.569-5.043 3.188-9.686 4.463-12.185 5.146-5.611 6-8.849 10.542-8.849 10.542l-6.543 4.312c0 0-0.973-4.576 12.049-17.922 0.809-3.973 3.661-12.221 13.27-19.788l2.164-1.688c-0.813-7.38-2.582-11.5-4.469-13.704-1.885-2.291-3.92-2.807-5.344-2.809L5.318 13.327c1.107-0.006 2.825 0.35 4.556 2.137 4.313 4.455 8.306 17.489 2.838 54.279-2.311 15.56 0.17 22.073 2.656 24.8 1.88 2.061 3.936 2.208 4.766 2.165C25.47 95.951 25.912 88.652 25.304 86.416z" fill="#f46036" data-fill-palette-color="accent"/>
                    </g>
                  </g>
                </svg>